<svg xmlns="http://www.w3.org/2000/svg" viewBox="0 0 514.51 514.51"><defs><style>.cls-1{fill:#ee7168;}.cls-2{fill:#fff;}</style></defs><title>Recurso 1logo</title><g id="Capa_2" data-name="Capa 2"><g id="Capa_1-2" data-name="Capa 1"><circle class="cls-1" cx="257.25" cy="257.25" r="257.25"/><path class="cls-2" d="M427.15,103.71a5.73,5.73,0,0,0-11.45,0c0,12.9,0,25.79-.06,38.69-.18,20.8-8,38.07-24.32,51.17a62.43,62.43,0,0,1-29.79,12.85c-2.28.37-3.56.09-3.21-2.76.32-2.54-.68-5.59.41-7.59,1.18-2.16,4.65-1.37,7.07-2a52,52,0,0,0,38.43-49.95c.07-13.45,0-26.91,0-40.36a5.74,5.74,0,0,0-11.47,0q-.07,18.69-.12,37.37a45.78,45.78,0,0,1-2.49,16.17c-5.29,14.08-15.44,22.59-30,26.09-1.73.41-1.86-.33-1.83-1.68.05-2.8.09-5.61,0-8.41-.35-10.6-7.64-17.76-18.25-17.92-3.82-.06-7.64-.14-11.45,0-2,.09-3-.66-3.87-2.36-9.81-18.42-24.61-31.56-43.72-39.49-33.11-13.73-66.49-13.4-99.48.35a85.43,85.43,0,0,0-39.11,32.7c-9.13,14-13.45,29.38-14.07,45.89-.77,20.43,4.46,39.14,16.54,55.83a92.26,92.26,0,0,0,18.28,18.55,13,13,0,0,1-2.06.81c-14.66,3-29.3,6.1-44,8.84-13.33,2.49-22.87,9.2-25.51,23C89.4,311.43,93.88,324,107,329c7.88,3.05,16,2.85,24.17,2.35,15-.9,30-1.63,45-2.49,1.63-.09,2.3.4,2.85,2a90.92,90.92,0,0,0,4.16,10.93c6.86,14.06,14.59,27.66,22.24,41.29a64.87,64.87,0,0,0,8,11.26A513.91,513.91,0,0,0,251.74,433c10.66,9.74,23.63,12.08,37.59,8.12,7.63-2.16,14-6.82,20.83-10.6a5.06,5.06,0,0,1,5.23-.33,37.53,37.53,0,0,0,30,1.4c10.23-3.82,20.35-8,30.47-12.08,2-.8,2.82-.76,3.88,1.45,3.8,7.87,12.72,11.76,21.46,9.73a19,19,0,0,0,14.51-17.95q.13-19.53,0-39.06a11.09,11.09,0,0,0-9.36-11.05c-5.23-.94-10.53-.19-15.78-.44a59,59,0,0,0-19.22,2.35c-6.75,1.93-13.67,3.24-20.45,5.08a3.56,3.56,0,0,1-4.06-1.12q-18.74-18.87-37.56-37.67a23.5,23.5,0,0,1-5.92-8.57c12.38,0,24.48,0,36.58,0,10.94-.05,18.29-7.37,18.47-18.35.07-4.27.12-8.54,0-12.8-.06-1.84.55-2.51,2.34-2.86,4.12-.81,10.78-2.53,14.87-3.51,6.71-1.6,13.49-2.92,19-7.7a28.06,28.06,0,0,0,8.13-29.92c-3.11-9.87-13-17.62-23.41-18.46-5.79-.46-11.34.82-16.93,1.92-4,.78-4,.78-4-3.2a53,53,0,0,0,0-6c-.28-2.39.82-3.19,2.92-3.28a47.64,47.64,0,0,0,10.59-2,74.75,74.75,0,0,0,55.29-71.91C427.18,130.67,427.16,117.19,427.15,103.71ZM389.74,374c4,.19,8.06.16,12.08,0,2-.07,2.43.63,2.39,2.49-.11,5.82,0,11.65,0,17.47s.12,11.43,0,17.13c-.16,6.08-4.24,9.54-9.43,8.3a6.24,6.24,0,0,1-4.6-3.53c-1.6-3.66-3.17-7.33-3.13-11.5.08-9.18.09-18.37,0-27.55C386.93,374.64,387.46,373.88,389.74,374ZM332,220.33a94.55,94.55,0,0,0,0-49.69c-.75-2.75-.63-3.87,2.52-3.55,2,.21,4,0,6,.07,4,.19,5.93,2.06,6,6.06.09,5.38,0,10.76,0,16.15q0,20.69,0,41.37c0,1.08.63,2.51-1.34,2.86-6.34,1.11-12.66,2.32-19.61,3.61A113.34,113.34,0,0,0,332,220.33Zm-7.3,29.5c.63.77-.21,1.69-.55,2.47q-7.61,17.13-15.23,34.24c-.46,1-.8,2-2,2.49-5.13,2.12-6.06,1.56-6.06-3.87v-7.07c-2-8.08,1-13.94,7.85-18.38a19.18,19.18,0,0,0,5.08-5.34,10.56,10.56,0,0,1,8.36-4.74C323,249.56,324.1,249.11,324.68,249.83Zm-201,70.33a30.29,30.29,0,0,1-11.89-1.67c-6.14-2.25-9.24-7-9.13-13.77s4.33-13.55,10.69-15.19c9.28-2.38,18.76-4,28.13-6,1.35-.29,1.53.53,1.91,1.28,5.49,11,11,21.93,16.61,33.23C147.63,318.76,135.67,319.56,123.71,320.16Zm50.68-2.88c-1.68.47-2-.78-2.6-1.9q-8.06-16.17-16.19-32.3c-.87-1.72-.93-2.35,1.32-2.71,5-.8,9.84-2,14.74-3.07,1.82-.41,2.64-.17,2.56,2-.15,4,0,8.07,0,12.11a159.37,159.37,0,0,0,1.09,22.8C175.41,315.19,176.29,316.74,174.39,317.28ZM174.15,260c-18.77-12.54-30.08-30-33.16-52.47-2.78-20.27.76-39.22,12.6-56.21,10.73-15.39,25.53-25.27,43.27-30.66,26.23-8,52.35-7.53,77.84,2.94,24.92,10.24,41.59,28.33,47.08,55,7.81,38-9.21,73.24-46.53,89.12-13.88,5.9-28.45,8.41-37.35,8.31C211.09,275.91,191.55,271.62,174.15,260ZM351.67,389.88l0,0a3.49,3.49,0,0,0,5.08-.05,48.63,48.63,0,0,1,3.67-3.76c1.83-1.63,1.75-2.76-.11-4.13a19,19,0,0,1-2.06-2.15l17.06-4.21c0,10.16,0,20.12,0,30.07a2,2,0,0,1-1.6,2.17c-10.79,4.24-21.44,8.88-32.38,12.7-11.52,4-21.82,1.13-30.45-7.47q-19.2-19.12-38.27-38.37c-1.84-1.85-3-2.11-4.61,0s-5.36,3.73-5.26,6c.09,2,3.32,3.92,5.22,5.82,10.85,10.89,21.69,21.79,32.63,32.59,1.7,1.68,2,2.43-.42,3.67-6.12,3.14-11.72,7.29-18.93,8.07-8.39.9-16-.95-22-6.72-13.09-12.51-26.37-24.88-38.1-38.74a54.66,54.66,0,0,1-6.1-8.91c-7.42-13.41-15.26-26.6-21.71-40.51a79.71,79.71,0,0,1-7.28-33.5c0-6.62.09-13.24-.08-19.86-.06-2.6.32-3.3,3.07-2.28,14.86,5.51,30.32,7.59,46.09,7.36a117.62,117.62,0,0,0,50.44-12c1.05-.51,2-1.42,3.57-1.22,0,11.55.16,23.09,0,34.61-.2,12.24,4.13,22.38,12.81,31C318.6,356.62,335.11,373.28,351.67,389.88Zm-5.09-95.29c-.18,3.12,0,6.27-.06,9.4-.09,4.51-1.95,6.46-6.59,6.56-6,.12-12.09,0-18.13,0s-12.09-.08-18.13.05c-2.14,0-2.93-.46-2.9-2.77.07-5.35-.06-5.34,5.16-6.59,12.56-3,25.12-6,37.65-9.08C346,291.58,346.73,292.1,346.58,294.59Zm27.11-54.31A16.21,16.21,0,0,1,392,252.4a15.54,15.54,0,0,1-11,18.82c-15.66,4-31.42,7.59-47.13,11.35l-11.66,2.77c5.65-12.68,11.12-24.88,16.51-37.12a3.18,3.18,0,0,1,2.7-2.08C352.18,244.22,362.92,242.2,373.69,240.28Z"/><path class="cls-2" d="M255.88,299.33c-6-.46-12.1-.09-18.15-.09V299c-5.27,0-10.55-.07-15.82,0C210,299.22,203,306.32,203,318.21c0,5.28-.11,10.56.05,15.83.26,8.72,6.38,15.74,15.07,16.55,12.4,1.15,24.89.85,37.3.23,9.77-.5,15.61-6.46,16.57-15.8a95.77,95.77,0,0,0,0-20.17C270.92,305.69,265.07,300,255.88,299.33Zm4.46,33.14c0,4.82-1.92,6.7-6.69,6.74-5.38,0-10.76,0-16.14,0s-11,0-16.47,0c-4,0-6.12-1.84-6.28-5.83-.21-5.59-.21-11.21,0-16.81.17-3.94,2.34-5.74,6.36-5.76q16.49-.06,33,0c4.14,0,6.17,2.05,6.24,6.2C260.42,322.15,260.39,327.31,260.34,332.47Z"/><path class="cls-2" d="M283.59,195.57c.19-38-31.28-69.1-69-68.93a69,69,0,0,0-.12,138.08C252.8,264.72,283.4,234.44,283.59,195.57Zm-63.08-56.76c26.92,3.81,51.73,27.66,49.53,46.23-7.16-3.21-14.14-6.67-21.46-9.32-11.14-4-22.39-7.45-34.31-8.5-12.13-1.06-23.53,1.59-34.7,5.83a118.16,118.16,0,0,0-17.7,8.72c-.89.52-1.69,1.59-3,1C165.23,153.74,193.27,135,220.51,138.81Zm2.4,113.59a57.58,57.58,0,0,1-65-47.85c-.69-4-.1-6.71,3.94-9.2,12.38-7.6,25.14-14,39.66-16.17,2.43-.37,4.91-.4,6.34-.51,13.88.1,25.88,4,37.72,8.41a248.14,248.14,0,0,1,24.05,10.86,3.14,3.14,0,0,1,2,3.64C269.36,227.1,248.35,248.67,222.91,252.4Z"/><path class="cls-2" d="M294.9,210.78c0,1.65.34,2.47,2.21,2.35a62.66,62.66,0,0,1,7.38,0c1.92.13,2.18-.76,2.15-2.37-.08-4,0-8.06,0-12.08,0-1.79.08-3.59,0-5.37-.16-3,1.33-7.17-.6-8.6s-6-.36-9.09-.54c-1.72-.11-2,.58-2,2.11Q295,198.53,294.9,210.78Z"/><path class="cls-2" d="M105.36,212.33a6.2,6.2,0,0,0,6.63-8.92,20.67,20.67,0,0,1,.22-19.22,6.2,6.2,0,0,0-6.43-9.07h0A20.68,20.68,0,0,1,87.56,169,6.2,6.2,0,0,0,77,172.29h0a20.66,20.66,0,0,1-11.48,15.42,6.2,6.2,0,0,0-.12,11.12h0a20.66,20.66,0,0,1,11.12,15.68A6.2,6.2,0,0,0,87,218.07,20.66,20.66,0,0,1,105.36,212.33Z"/><path class="cls-2" d="M314,103.35h0A20.66,20.66,0,0,1,325.09,119h0a6.19,6.19,0,0,0,10.53,3.55A20.69,20.69,0,0,1,354,116.85h0a6.2,6.2,0,0,0,6.64-8.92,20.67,20.67,0,0,1,.22-19.22h0a6.2,6.2,0,0,0-6.43-9.07,20.68,20.68,0,0,1-18.22-6.15,6.2,6.2,0,0,0-10.61,3.31h0a20.68,20.68,0,0,1-11.48,15.43h0A6.2,6.2,0,0,0,314,103.35Z"/><path class="cls-2" d="M387.72,321.27A12.77,12.77,0,0,1,397.5,328a3.82,3.82,0,0,0,6.86-.17,12.75,12.75,0,0,1,9.41-7.22,3.83,3.83,0,0,0,2-6.58,12.77,12.77,0,0,1-4-11.19,3.82,3.82,0,0,0-5.65-3.89,12.76,12.76,0,0,1-11.86.31,3.82,3.82,0,0,0-5.45,4.17,12.77,12.77,0,0,1-3.38,11.38A3.83,3.83,0,0,0,387.72,321.27Z"/><path class="cls-2" d="M176.44,378.37h0a3.83,3.83,0,0,0-5.66-3.89,12.76,12.76,0,0,1-11.86.3,3.82,3.82,0,0,0-5.44,4.18h0a12.75,12.75,0,0,1-3.38,11.37h0a3.83,3.83,0,0,0,2.29,6.47,12.75,12.75,0,0,1,9.77,6.73,3.83,3.83,0,0,0,6.87-.18,12.73,12.73,0,0,1,9.41-7.22,3.82,3.82,0,0,0,1.95-6.58A12.77,12.77,0,0,1,176.44,378.37Z"/></g></g></svg>